Coordinates
version=1
nRows=4
nColumns=40
inDegrees=yes

Units are S.I. units (second, meters, Newtons, ...)
If the header above contains a line with 'inDegrees', this indicates whether rotational values are in degrees (yes) or radians (no).

endheader
time	pelvis_tilt	pelvis_list	pelvis_rotation	pelvis_tx	pelvis_ty	pelvis_tz	hip_flexion_r	hip_adduction_r	hip_rotation_r	knee_angle_r	knee_angle_r_beta	ankle_angle_r	subtalar_angle_r	mtp_angle_r	hip_flexion_l	hip_adduction_l	hip_rotation_l	knee_angle_l	knee_angle_l_beta	ankle_angle_l	subtalar_angle_l	mtp_angle_l	lumbar_extension	lumbar_bending	lumbar_rotation	arm_flex_r	arm_add_r	arm_rot_r	elbow_flex_r	pro_sup_r	wrist_flex_r	wrist_dev_r	arm_flex_l	arm_add_l	arm_rot_l	elbow_flex_l	pro_sup_l	wrist_flex_l	wrist_dev_l
      8.32499999999999928946	     11.17326662329303488264	     -7.65758786927795931376	    179.80224141916556845899	      0.34443481412782650519	      0.79207737787158105647	     -0.62466362330424207716	     58.81990598092360755800	     -9.62967636691560890938	     10.35171524836657397373	     58.88132456272829529098	      1.02767298155501918266	     18.02576051891026054363	      0.00000000000000000000	      0.00000000000000000000	     53.38598465871171327990	     -9.25855728786032372568	    -16.89339826585917947455	     57.52282778240323324326	      1.00396273986060480254	     14.26223294956339060491	      0.00000000000000000000	      0.00000000000000000000	    -62.80954410637435358922	     -5.66921846327718448322	    -13.84166287431705377742	     60.08792662693306851907	      5.80967427196354169183	     35.11852579736848412040	      3.82725895887283495966	      9.48725198197697672242	      0.00000000000000000000	      0.00000000000000000000	     66.77206970797901419701	    -14.63630233541022640509	     69.77014458087649018125	      3.35703268715249025789	     83.37046099926270414926	      0.00000000000000000000	      0.00000000000000000000
      8.33000000000000007105	     11.21450551352713809194	     -7.66773461734953709623	    179.80174815566536494771	      0.34464330649692920261	      0.79286806322865521768	     -0.62479618095668965072	     58.74251264815393369645	     -9.67599563342905888419	     10.25714407437577335713	     58.63200936939022511751	      1.02332161055602366417	     17.92244198513899533509	      0.00000000000000000000	      0.00000000000000000000	     53.32013177003231163553	     -9.25093023412287784879	    -16.99322574192085610889	     57.31511336023286418140	      1.00033743928985430216	     14.13676034924396773818	      0.00000000000000000000	      0.00000000000000000000	    -62.66687232785174188621	     -5.73554811832633859581	    -13.80190049774381755299	     60.01020152697372367356	      5.80097862224324867242	     35.13354644880809019014	      3.80419631488398435337	      9.47898935841374168376	      0.00000000000000000000	      0.00000000000000000000	     66.70401444991969697185	    -14.62052207121066516038	     69.76990169015404319453	      3.37659350062961038930	     83.37405071862977479213	      0.00000000000000000000	      0.00000000000000000000
      8.33500000000000085265	     11.28014008500584353101	     -7.65349088507199759590	    179.80652533680205351629	      0.34485966157505293372	      0.79392768853348827385	     -0.62516515638172398539	     58.62976573748801456532	     -9.63677302435205618281	     10.23161651672495686682	     58.30366971961878164166	      1.01759100260266688309	     17.73072244846422407250	      0.00000000000000000000	      0.00000000000000000000	     53.19660558505155734110	     -9.21403508787006053637	    -17.00237834386267721243	     56.90996825826822202998	      0.99326632331224318229	     13.93421947499765600753	      0.00000000000000000000	      0.00000000000000000000	    -62.54137117412151525286	     -5.79788058568135422632	    -13.75506049597478686053	     59.92734132555796833230	      5.79758457947071548233	     35.16511046250091965248	      3.79693308923010297562	      9.46922106713920719301	      0.00000000000000000000	      0.00000000000000000000	     66.66804245049097232823	    -14.61872924857862265924	     69.76621690506759421169	      3.38563254549554626394	     83.37690893232500854992	      0.00000000000000000000	      0.00000000000000000000
      8.33999999999999985789	     11.29167281278149737034	     -7.66019592615795463786	    179.80490256793137859859	      0.34513886847242797318	      0.79479878361132505482	     -0.62514823276795061791	     58.52628130051483168472	     -9.66772551230383569987	     10.18567977987792794181	     58.05267550269062581947	      1.01321032711380576430	     17.58267559222190712376	      0.00000000000000000000	      0.00000000000000000000	     53.09843463936145013804	     -9.18076375577099135228	    -17.05786622572766120243	     56.68344232954146377779	      0.98931270001482318754	     13.80526476442380001686	      0.00000000000000000000	      0.00000000000000000000	    -62.43629763798991660906	     -5.83332861799504343026	    -13.72486656106742763939	     59.87285976929832287396	      5.78120891613624543481	     35.18378607367810673168	      3.78475812953794710225	      9.46186564765320525794	      0.00000000000000000000	      0.00000000000000000000	     66.61096873958068442789	    -14.59043424632063690183	     69.76483447562551987176	      3.39926914601492091705	     83.38017798396847979348	      0.00000000000000000000	      0.00000000000000000000
